<svg width="278" height="295" viewBox="0 0 278 295" fill="none" xmlns="http://www.w3.org/2000/svg">
<path fill-rule="evenodd" clip-rule="evenodd" d="M49 52C87.001 51.833 125.001 52 163 52.5C167.196 55.481 168.029 59.314 165.5 64C164.329 65.393 162.829 66.227 161 66.5C124 67.167 87 67.167 50 66.5C44.811 63.587 43.644 59.42 46.5 54C47.495 53.434 48.328 52.767 49 52Z" fill="#0E0E0E"/>
<path fill-rule="evenodd" clip-rule="evenodd" d="M49 97C101.668 96.833 154.334 97 207 97.5C211.936 101.458 212.269 105.791 208 110.5C154.667 111.167 101.333 111.167 48 110.5C42.545 105.511 42.878 101.011 49 97Z" fill="#090909"/>
<path fill-rule="evenodd" clip-rule="evenodd" d="M49 141C72.336 140.833 95.669 141 119 141.5C125.667 146.167 125.667 150.833 119 155.5C96 156.167 73 156.167 50 155.5C42.486 151.001 42.153 146.168 49 141Z" fill="#161616"/>
<path d="M20.0002 0.500249C78.3332 -0.166749 136.667 -0.16675 195 0.500249C197.449 1.22524 199.783 2.2253 202 3.50025L249.5 51.0002L252.5 57.0002C252.833 90.3332 253.167 123.667 253.5 157C256.899 160.229 260.065 163.562 263 167C266.776 172.628 269.943 178.628 272.5 185C284.916 226.593 273.416 259.593 238 284C217.679 294.873 196.345 297.373 174 291.5C122.333 291.167 70.6672 290.833 19.0002 290.5C9.05934 287.147 2.89229 280.313 0.500249 270C-0.16675 186.667 -0.166749 103.333 0.500249 20.0002C3.66725 10.1673 10.1673 3.66725 20.0002 0.500249ZM258.5 192C245.16 162.068 221.994 148.068 189 150C170.566 152.971 155.732 161.971 144.5 177C125.645 209.774 129.812 239.274 157 265.5C180.27 281.568 204.603 283.235 230 270.5C258.289 251.309 267.789 225.142 258.5 192ZM23.0002 15.0002C20.3613 16.8092 18.1942 19.1423 16.5002 22.0002C15.8333 104.333 15.8332 186.667 16.5002 269C18.4903 272.99 21.6574 275.49 26.0002 276.5C66.3332 277.167 106.667 277.167 147 276.5C134.053 265.795 125.22 252.295 120.5 236C113.422 208.047 119.089 183.047 137.5 161C167.019 131.969 200.353 126.636 237.5 145C238 120.002 238.167 95.0022 238 70.0002C225.662 70.1672 213.329 70.0002 201 69.5002C193.833 67.6673 189.333 63.1671 187.5 56.0002C187 42.3373 186.833 28.6712 187 15.0002H23.0002ZM201 23.0002C200.834 32.6722 201 42.3393 201.5 52.0002C201.965 53.4311 202.799 54.5973 204 55.5002C214 56.1672 224 56.1672 234 55.5002C223.132 44.4653 212.132 33.6312 201 23.0002Z" fill="#0C0C0C"/>
<path fill-rule="evenodd" clip-rule="evenodd" d="M195 165C198.525 164.846 201.359 166.179 203.5 169C203.833 183.333 204.167 197.667 204.5 212C213.167 218.667 221.833 225.333 230.5 232C233.375 240.088 230.542 243.921 222 243.5C212.667 236.833 203.333 230.167 194 223.5C192.451 222.286 191.285 220.786 190.5 219C189.833 202.333 189.833 185.667 190.5 169C191.897 167.43 193.397 166.096 195 165Z" fill="#0A0A0A"/>
<path fill-rule="evenodd" clip-rule="evenodd" d="M50 185C65.67 184.833 81.337 185 97 185.5C101.643 187.572 103.143 191.072 101.5 196C100.286 197.549 98.786 198.715 97 199.5C81.333 200.167 65.667 200.167 50 199.5C45.085 197.058 43.751 193.224 46 188C47.401 186.979 48.735 185.979 50 185Z" fill="#0E0E0E"/>
<path fill-rule="evenodd" clip-rule="evenodd" d="M48 229C65.003 228.833 82.003 229 99 229.5C101.894 232.409 102.727 235.909 101.5 240C100.597 241.201 99.431 242.035 98 242.5C81.667 243.167 65.333 243.167 49 242.5C45.817 241.482 44.484 239.315 45 236C45.167 234.667 45.333 233.333 45.5 232C46.545 231.127 47.378 230.127 48 229Z" fill="#090909"/>
</svg>
