<svg width="829" height="296" viewBox="0 0 829 296" fill="none" xmlns="http://www.w3.org/2000/svg">
<path fill-rule="evenodd" clip-rule="evenodd" d="M645.5 23.5C652.896 23.2 660.229 23.7 667.5 25C674.482 28.213 676.315 33.38 673 40.5C669.547 43.769 665.714 44.269 661.5 42C659.5 39 657.5 36 655.5 33C649.298 31.18 645.465 33.347 644 39.5C643.5 46.492 643.334 53.492 643.5 60.5C649.833 60.5 656.167 60.5 662.5 60.5C662.5 63.5 662.5 66.5 662.5 69.5C656.167 69.5 649.833 69.5 643.5 69.5C643.333 85.837 643.5 102.17 644 118.5C646.011 123.757 649.844 125.757 655.5 124.5C655.5 127.167 655.5 129.833 655.5 132.5C641.833 132.5 628.167 132.5 614.5 132.5C614.5 130.167 614.5 127.833 614.5 125.5C618.433 125.589 621.266 123.922 623 120.5C623.5 103.17 623.667 85.837 623.5 68.5C619.5 68.5 615.5 68.5 611.5 68.5C611.5 65.833 611.5 63.167 611.5 60.5C615.5 60.5 619.5 60.5 623.5 60.5C620.405 41.657 627.738 29.324 645.5 23.5Z" fill="#090909"/>
<path d="M299.061 40.0625C317.397 39.8955 335.731 40.0625 354.061 40.5625C371.638 42.6375 380.638 52.4708 381.061 70.0625C381.67 87.2824 373.669 98.1165 357.061 102.562C349.114 103.906 341.114 104.739 333.061 105.062C332.895 113.735 333.061 122.403 333.561 131.062C334.346 132.848 335.512 134.349 337.061 135.562C339.926 136.399 342.759 137.232 345.561 138.062C346.058 140.372 346.224 142.706 346.061 145.062H299.061V137.062C304.111 137.288 307.944 135.288 310.561 131.062C311.228 105.396 311.228 79.7293 310.561 54.0625C308.118 49.9027 304.45 47.5695 299.561 47.0625C299.064 44.7526 298.898 42.4194 299.061 40.0625ZM358.5 73C358.882 55.8831 350.548 48.383 333.5 50.5V95.5C349.87 96.68 358.204 89.1799 358.5 73Z" fill="#090A09"/>
<path fill-rule="evenodd" clip-rule="evenodd" d="M49.5 52.5C87.501 52.333 125.501 52.5 163.5 53C167.696 55.981 168.529 59.814 166 64.5C164.829 65.893 163.329 66.727 161.5 67C124.5 67.667 87.5 67.667 50.5 67C45.311 64.087 44.144 59.92 47 54.5C47.995 53.934 48.828 53.267 49.5 52.5Z" fill="#0E0E0E"/>
<path fill-rule="evenodd" clip-rule="evenodd" d="M417.5 56.5C418.822 56.33 419.989 56.663 421 57.5C421.995 62.453 422.662 67.453 423 72.5C425.379 65.457 429.879 60.29 436.5 57C447.829 54.719 452.995 59.219 452 70.5C450.663 75.34 447.496 77.673 442.5 77.5C438.507 76.319 434.507 75.486 430.5 75C426.138 77.543 423.638 81.377 423 86.5C422.333 97.5 422.333 108.5 423 119.5C425.622 123.662 429.455 125.662 434.5 125.5C434.5 127.833 434.5 130.167 434.5 132.5C420.5 132.5 406.5 132.5 392.5 132.5C392.5 130.167 392.5 127.833 392.5 125.5C395.939 125.411 398.772 124.078 401 121.5C401.667 106.167 401.667 90.833 401 75.5C399.082 72.572 396.415 70.906 393 70.5C392.186 68.098 392.353 65.765 393.5 63.5C401.886 62.075 409.886 59.742 417.5 56.5Z" fill="#0B0B0B"/>
<path d="M545.5 68.5004C561.604 54.2134 578.937 52.7134 597.5 64.0004C609.818 76.0974 613.651 90.5975 609 107.5C604.65 121.849 595.15 130.683 580.5 134C573.391 134.826 566.391 134.326 559.5 132.5C552.611 129.784 546.778 125.45 542 119.5C532.509 101.727 533.676 84.7263 545.5 68.5004ZM583 70.5004C579.469 66.3774 574.969 64.7104 569.5 65.5004C564.428 68.2614 561.261 72.5955 560 78.5004C559.333 88.5003 559.333 98.5006 560 108.5C560.879 113.136 562.545 117.47 565 121.5C574.247 127.866 581.247 125.866 586 115.5C590.076 100.119 589.076 85.1183 583 70.5004Z" fill="#0B0B0B"/>
<path d="M485.5 56.5C517.037 56.535 531.204 72.201 528 103.5C521.363 127.911 505.529 137.744 480.5 133C460.353 125.562 451.853 111.062 455 89.5C458.464 72.206 468.631 61.206 485.5 56.5ZM500.479 72.0625C497.149 68.3145 492.982 66.6475 487.979 67.0625C482.869 69.3585 479.702 73.3586 478.479 79.0625C476.932 88.0004 476.598 97.0007 477.479 106.062C478.019 111.765 479.686 117.099 482.479 122.062C491.069 129.574 498.07 128.24 503.479 118.062C505.908 107.871 506.575 97.5373 505.479 87.0625C505.002 81.6316 503.335 76.6314 500.479 72.0625Z" fill="#0A0B0A"/>
<path fill-rule="evenodd" clip-rule="evenodd" d="M49.5 97.5C102.168 97.333 154.834 97.5 207.5 98C212.436 101.958 212.769 106.291 208.5 111C155.167 111.667 101.833 111.667 48.5 111C43.045 106.011 43.378 101.511 49.5 97.5Z" fill="#090909"/>
<path fill-rule="evenodd" clip-rule="evenodd" d="M49.5 141.5C72.836 141.333 96.169 141.5 119.5 142C126.167 146.667 126.167 151.333 119.5 156C96.5 156.667 73.5 156.667 50.5 156C42.986 151.501 42.653 146.668 49.5 141.5Z" fill="#161616"/>
<path d="M20.4998 0.99976C78.8327 0.332761 137.167 0.332763 195.5 0.99976C197.949 1.72473 200.283 2.72484 202.5 3.99976L250 51.4998L253 57.4998C253.333 90.8327 253.667 124.167 254 157.5C257.399 160.729 260.565 164.062 263.5 167.5C267.276 173.128 270.443 179.128 273 185.5C285.416 227.093 273.916 260.093 238.5 284.5C218.179 295.373 196.845 297.873 174.5 292C122.833 291.667 71.1667 291.333 19.4998 291C9.55894 287.647 3.39174 280.813 0.999761 270.5C0.332763 187.167 0.332761 103.833 0.999761 20.4998C4.16676 10.6669 10.6669 4.16676 20.4998 0.99976ZM259 192.5C245.66 162.568 222.494 148.568 189.5 150.5C171.066 153.471 156.232 162.471 145 177.5C126.145 210.274 130.312 239.774 157.5 266C180.77 282.068 205.103 283.735 230.5 271C258.789 251.809 268.289 225.642 259 192.5ZM23.4998 15.4998C20.8608 17.3087 18.6937 19.6418 16.9998 22.4998C16.3328 104.833 16.3328 187.167 16.9998 269.5C18.9897 273.49 22.1569 275.99 26.4998 277C66.8327 277.667 107.167 277.667 147.5 277C134.553 266.295 125.72 252.795 121 236.5C113.922 208.547 119.589 183.547 138 161.5C167.519 132.469 200.853 127.136 238 145.5C238.5 120.502 238.667 95.5017 238.5 70.4998C226.162 70.6668 213.829 70.4998 201.5 69.9998C194.333 68.1667 189.833 63.6667 188 56.4998C187.5 42.8368 187.333 29.1707 187.5 15.4998H23.4998ZM201.5 23.4998C201.334 33.1717 201.5 42.8389 202 52.4998C202.465 53.9306 203.299 55.0968 204.5 55.9998C214.5 56.6668 224.5 56.6667 234.5 55.9998C223.632 44.9648 212.632 34.1307 201.5 23.4998Z" fill="#0C0C0C"/>
<path fill-rule="evenodd" clip-rule="evenodd" d="M397.5 162.5C400.448 162.223 403.281 162.556 406 163.5C406.333 178.167 406.667 192.833 407 207.5C414.417 197.866 423.917 194.699 435.5 198C441.773 201.275 445.273 206.442 446 213.5C446.333 226.833 446.667 240.167 447 253.5C448.49 255.558 450.49 256.891 453 257.5C453.494 259.134 453.66 260.801 453.5 262.5C442.5 262.5 431.5 262.5 420.5 262.5C420.5 260.5 420.5 258.5 420.5 256.5C423.044 256.896 425.211 256.229 427 254.5C427.667 241.5 427.667 228.5 427 215.5C420.622 206.464 413.955 206.464 407 215.5C406.333 227.833 406.333 240.167 407 252.5C408.586 255.134 410.92 256.801 414 257.5C414.494 259.134 414.66 260.801 414.5 262.5C403.167 262.5 391.833 262.5 380.5 262.5C380.34 260.801 380.506 259.134 381 257.5C383.831 257.042 386.164 255.708 388 253.5C388.667 227.833 388.667 202.167 388 176.5C386.661 173.906 384.494 172.406 381.5 172C379.86 169.224 380.527 167.224 383.5 166C388.402 165.259 393.068 164.092 397.5 162.5Z" fill="#0C0C0C"/>
<path fill-rule="evenodd" clip-rule="evenodd" d="M756.5 162.5C759.685 162.02 762.519 162.686 765 164.5C765.333 194.167 765.667 223.833 766 253.5C766.374 254.416 766.874 255.25 767.5 256C771.882 256.003 773.549 258.169 772.5 262.5C761.833 262.5 751.167 262.5 740.5 262.5C740.5 260.5 740.5 258.5 740.5 256.5C743.238 257.035 745.072 256.035 746 253.5C746.667 227.833 746.667 202.167 746 176.5C744.461 173.479 741.961 172.146 738.5 172.5C738.261 170.533 738.594 168.699 739.5 167C745.338 165.673 751.005 164.173 756.5 162.5Z" fill="#0E0E0E"/>
<path fill-rule="evenodd" clip-rule="evenodd" d="M195.5 165.5C199.025 165.346 201.859 166.679 204 169.5C204.333 183.833 204.667 198.167 205 212.5C213.667 219.167 222.333 225.833 231 232.5C233.875 240.588 231.042 244.421 222.5 244C213.167 237.333 203.833 230.667 194.5 224C192.951 222.786 191.785 221.286 191 219.5C190.333 202.833 190.333 186.167 191 169.5C192.397 167.93 193.897 166.596 195.5 165.5Z" fill="#0A0A0A"/>
<path fill-rule="evenodd" clip-rule="evenodd" d="M662.5 168.5C674.636 168.768 678.136 174.435 673 185.5C668 189.5 663 189.5 658 185.5C653.596 178.034 655.096 172.367 662.5 168.5Z" fill="#0D0D0D"/>
<path fill-rule="evenodd" clip-rule="evenodd" d="M340.5 169.5C352.271 168.776 363.604 170.61 374.5 175C375.481 182.413 375.814 189.913 375.5 197.5C373.076 197.808 370.743 197.474 368.5 196.5C364.39 180.856 354.723 175.69 339.5 181C332.116 186.592 327.949 194.092 327 203.5C326.333 212.833 326.333 222.167 327 231.5C328.388 245.213 335.721 253.547 349 256.5C360.909 255.092 367.742 248.425 369.5 236.5C371.5 236.5 373.5 236.5 375.5 236.5C375.666 243.841 375.5 251.174 375 258.5C356.854 268.267 339.02 267.767 321.5 257C307 242.868 301.5 225.702 305 205.5C309.347 185.987 321.181 173.987 340.5 169.5Z" fill="#0D0D0D"/>
<path fill-rule="evenodd" clip-rule="evenodd" d="M50.5 185.5C66.17 185.333 81.837 185.5 97.5 186C102.143 188.072 103.643 191.572 102 196.5C100.786 198.049 99.286 199.215 97.5 200C81.833 200.667 66.167 200.667 50.5 200C45.585 197.558 44.251 193.724 46.5 188.5C47.901 187.479 49.235 186.479 50.5 185.5Z" fill="#0E0E0E"/>
<path fill-rule="evenodd" clip-rule="evenodd" d="M707.5 196.5C716.009 195.508 724.009 197.008 731.5 201C736.396 206.397 736.729 212.064 732.5 218C730.167 220 727.833 220 725.5 218C722.182 214.686 719.682 210.852 718 206.5C714.412 202.607 710.746 202.607 707 206.5C700.06 218.957 699.726 231.624 706 244.5C712.644 251.956 720.478 253.456 729.5 249C731.293 247.22 732.96 245.387 734.5 243.5C736.23 244.026 737.564 245.026 738.5 246.5C732.375 261.232 721.375 267.065 705.5 264C693.258 261.349 686.091 253.849 684 241.5C679.834 219.818 687.668 204.818 707.5 196.5Z" fill="#0B0B0B"/>
<path fill-rule="evenodd" clip-rule="evenodd" d="M477.5 196.5C479.911 196.137 481.411 197.137 482 199.5C482.333 203.167 482.667 206.833 483 210.5C485.097 204.443 488.93 199.943 494.5 197C503.512 195.032 508.012 198.532 508 207.5C506.83 211.836 503.996 214.169 499.5 214.5C490.904 209.21 485.404 211.543 483 221.5C482.333 231.5 482.333 241.5 483 251.5C485.348 255.349 488.848 257.016 493.5 256.5C493.5 258.5 493.5 260.5 493.5 262.5C481.167 262.5 468.833 262.5 456.5 262.5C456.5 260.5 456.5 258.5 456.5 256.5C459.505 256.747 462.005 255.747 464 253.5C464.667 240.167 464.667 226.833 464 213.5C462.493 210.574 460.159 208.574 457 207.5C456.333 205.833 456.333 204.167 457 202.5C464.117 201.182 470.95 199.182 477.5 196.5Z" fill="#0A0A0A"/>
<path fill-rule="evenodd" clip-rule="evenodd" d="M595.5 196.5C596.833 196.5 598.167 196.5 599.5 196.5C600.08 200.142 600.58 203.809 601 207.5C608.195 197.315 617.695 194.148 629.5 198C634.116 200.618 637.283 204.451 639 209.5C639.333 223.833 639.667 238.167 640 252.5C641.097 255.265 643.097 256.931 646 257.5C646.494 259.134 646.66 260.801 646.5 262.5C635.833 262.5 625.167 262.5 614.5 262.5C614.5 260.833 614.5 259.167 614.5 257.5C617.561 257.556 619.728 256.222 621 253.5C621.667 241.167 621.667 228.833 621 216.5C615.093 206.214 608.426 205.88 601 215.5C600.333 228.167 600.333 240.833 601 253.5C602.264 255.607 604.097 256.607 606.5 256.5C606.5 258.5 606.5 260.5 606.5 262.5C595.833 262.5 585.167 262.5 574.5 262.5C574.34 260.801 574.506 259.134 575 257.5C578.08 256.801 580.414 255.134 582 252.5C582.667 239.5 582.667 226.5 582 213.5C580.493 210.574 578.159 208.574 575 207.5C574.137 205.251 574.637 203.418 576.5 202C583.268 201.224 589.601 199.39 595.5 196.5Z" fill="#0A0A0A"/>
<path fill-rule="evenodd" clip-rule="evenodd" d="M670.5 196.5C671.822 196.33 672.989 196.663 674 197.5C674.333 216.167 674.667 234.833 675 253.5C675.875 256.215 677.708 257.548 680.5 257.5C680.5 259.167 680.5 260.833 680.5 262.5C670.167 262.5 659.833 262.5 649.5 262.5C649.5 260.5 649.5 258.5 649.5 256.5C652.325 256.919 654.491 255.919 656 253.5C656.667 240.167 656.667 226.833 656 213.5C654.577 210.408 652.243 208.408 649 207.5C648.333 205.833 648.333 204.167 649 202.5C656.475 201.311 663.642 199.311 670.5 196.5Z" fill="#090A0A"/>
<path d="M797.5 196.5C818.097 194.6 828.263 203.933 828 224.5C827.535 225.931 826.701 227.097 825.5 228C814.839 228.5 804.172 228.667 793.5 228.5C792.364 239.337 796.698 246.837 806.5 251C813.838 252.277 819.504 249.777 823.5 243.5C825.517 244.174 827.183 245.341 828.5 247C821.225 262.633 809.225 267.966 792.5 263C782.531 259.242 776.698 252.075 775 241.5C771.387 226.021 775.22 212.855 786.5 202C790.017 199.674 793.683 197.84 797.5 196.5ZM812 212.5C810.937 205.217 806.77 202.217 799.5 203.5C794.827 208.507 792.494 214.507 792.5 221.5H812.5C812.665 218.482 812.498 215.482 812 212.5Z" fill="#0B0B0B"/>
<path d="M533.5 196.5C561.938 196.11 574.438 210.11 571 238.5C565.384 257.768 552.551 266.268 532.5 264C513.162 258.526 504.995 245.693 508 225.5C510.717 210.624 519.217 200.957 533.5 196.5ZM550 213.5C548.242 206.372 543.742 203.372 536.5 204.5C533.471 206.372 531.305 209.039 530 212.5C526.534 225.249 526.867 237.916 531 250.5C531.785 252.286 532.951 253.786 534.5 255C542.622 257.852 547.789 255.019 550 246.5C551.973 235.508 551.973 224.508 550 213.5Z" fill="#0A0A0A"/>
<path fill-rule="evenodd" clip-rule="evenodd" d="M48.5 229.5C65.503 229.333 82.503 229.5 99.5 230C102.394 232.909 103.227 236.409 102 240.5C101.097 241.701 99.931 242.535 98.5 243C82.167 243.667 65.833 243.667 49.5 243C46.317 241.982 44.984 239.815 45.5 236.5C45.667 235.167 45.833 233.833 46 232.5C47.045 231.627 47.878 230.627 48.5 229.5Z" fill="#090909"/>
</svg>
